<svg xmlns="http://www.w3.org/2000/svg" viewBox="0 0 48 48" width="48" height="48">
  <rect width="48" height="48" rx="11" fill="#f4efe6"/>
  <g fill="#0e7c7b" transform="translate(0,1)">
    <path d="M6 30c0-7.2 5.6-12.5 13-12.5h5.5c3.4 0 6 .6 8.8 .6 1.8 0 3-.7 4.6-1.8.9-.6 2 .3 1.7 1.3-.5 1.7-1.6 3-3.2 3.9-.9 .5-1.4 1-1.7 1.8l-1.6 4 0 .2 0 3.7a3 3 0 0 1-3 3H10a4 4 0 0 1-4-4z"/>
    <path d="M30 18.2c.5-2.2 1.6-3.7 3.2-4.4 .9-.4 1.8 .5 1.4 1.4-.6 1.5-.8 2.7-.6 3.9z"/>
    <circle cx="33" cy="23" r="1.4" fill="#f4efe6"/>
    <rect x="13" y="34.5" width="2.8" height="5" rx="1.3"/>
    <rect x="25.5" y="34.5" width="2.8" height="5" rx="1.3"/>
  </g>
</svg>
